<mxfile host="Electron" modified="2023-12-05T02:33:16.024Z" agent="Mozilla/5.0 (X11; Linux x86_64) AppleWebKit/537.36 (KHTML, like Gecko) draw.io/22.1.2 Chrome/114.0.5735.289 Electron/25.9.4 Safari/537.36" etag="QWyvzuCt_ZRVoRDgKltg" version="22.1.2" type="device">
  <diagram name="PÃ¡gina-1" id="el7gPq-sHXg98w1kQqnI">
    <mxGraphModel dx="1993" dy="1331" grid="1" gridSize="10" guides="1" tooltips="1" connect="1" arrows="1" fold="1" page="0" pageScale="1" pageWidth="3200" pageHeight="1000" math="0" shadow="0">
      <root>
        <mxCell id="0" />
        <mxCell id="1" parent="0" />
        <mxCell id="xlIVfgwMKjQX-nI9aJls-5" value="" style="edgeStyle=none;curved=1;rounded=0;orthogonalLoop=1;jettySize=auto;html=1;fontSize=12;startSize=8;endSize=8;" parent="1" source="xlIVfgwMKjQX-nI9aJls-3" target="xlIVfgwMKjQX-nI9aJls-4" edge="1">
          <mxGeometry relative="1" as="geometry" />
        </mxCell>
        <mxCell id="xlIVfgwMKjQX-nI9aJls-3" value="PROCEDIMIENTO mostrarCatalogo (&amp;lt;E/S&amp;gt; producto: arrPelis[ ], &amp;lt;E&amp;gt; n)" style="ellipse;whiteSpace=wrap;html=1;fontSize=16;" parent="1" vertex="1">
          <mxGeometry x="-101" y="-185" width="570" height="48" as="geometry" />
        </mxCell>
        <mxCell id="xlIVfgwMKjQX-nI9aJls-7" value="" style="edgeStyle=none;curved=1;rounded=0;orthogonalLoop=1;jettySize=auto;html=1;fontSize=12;startSize=8;endSize=8;" parent="1" source="xlIVfgwMKjQX-nI9aJls-4" target="xlIVfgwMKjQX-nI9aJls-6" edge="1">
          <mxGeometry relative="1" as="geometry" />
        </mxCell>
        <mxCell id="xlIVfgwMKjQX-nI9aJls-4" value="band &amp;lt;- true" style="whiteSpace=wrap;html=1;fontSize=16;" parent="1" vertex="1">
          <mxGeometry x="132" y="-87" width="104" height="30" as="geometry" />
        </mxCell>
        <mxCell id="SqoGVN4lwTvcHXy7-6ua-1" style="edgeStyle=orthogonalEdgeStyle;rounded=0;orthogonalLoop=1;jettySize=auto;html=1;" edge="1" parent="1" source="xlIVfgwMKjQX-nI9aJls-6" target="xlIVfgwMKjQX-nI9aJls-8">
          <mxGeometry relative="1" as="geometry" />
        </mxCell>
        <mxCell id="xlIVfgwMKjQX-nI9aJls-6" value="i &amp;lt;- 0" style="whiteSpace=wrap;html=1;fontSize=16;" parent="1" vertex="1">
          <mxGeometry x="151" y="20" width="66" height="30" as="geometry" />
        </mxCell>
        <mxCell id="xlIVfgwMKjQX-nI9aJls-11" value="" style="edgeStyle=none;curved=1;rounded=0;orthogonalLoop=1;jettySize=auto;html=1;fontSize=12;startSize=8;endSize=8;" parent="1" source="xlIVfgwMKjQX-nI9aJls-8" target="xlIVfgwMKjQX-nI9aJls-10" edge="1">
          <mxGeometry relative="1" as="geometry" />
        </mxCell>
        <mxCell id="xlIVfgwMKjQX-nI9aJls-12" value="SI" style="edgeLabel;html=1;align=center;verticalAlign=middle;resizable=0;points=[];fontSize=16;" parent="xlIVfgwMKjQX-nI9aJls-11" vertex="1" connectable="0">
          <mxGeometry x="-0.12" relative="1" as="geometry">
            <mxPoint x="-2" as="offset" />
          </mxGeometry>
        </mxCell>
        <mxCell id="7JGmVb6ZmZHSpFucRenV-14" style="edgeStyle=orthogonalEdgeStyle;rounded=0;orthogonalLoop=1;jettySize=auto;html=1;entryX=1;entryY=0.5;entryDx=0;entryDy=0;" parent="1" source="xlIVfgwMKjQX-nI9aJls-8" target="xlIVfgwMKjQX-nI9aJls-28" edge="1">
          <mxGeometry relative="1" as="geometry">
            <Array as="points">
              <mxPoint x="1001" y="170" />
              <mxPoint x="1001" y="1314" />
            </Array>
          </mxGeometry>
        </mxCell>
        <mxCell id="xlIVfgwMKjQX-nI9aJls-8" value="(band) Y (i &amp;lt; n)" style="rhombus;whiteSpace=wrap;html=1;fontSize=16;" parent="1" vertex="1">
          <mxGeometry x="103" y="130" width="162" height="80" as="geometry" />
        </mxCell>
        <mxCell id="7JGmVb6ZmZHSpFucRenV-5" style="edgeStyle=orthogonalEdgeStyle;rounded=0;orthogonalLoop=1;jettySize=auto;html=1;" parent="1" source="xlIVfgwMKjQX-nI9aJls-10" target="7JGmVb6ZmZHSpFucRenV-25" edge="1">
          <mxGeometry relative="1" as="geometry">
            <mxPoint x="571" y="387" as="targetPoint" />
            <Array as="points">
              <mxPoint x="581" y="357" />
            </Array>
          </mxGeometry>
        </mxCell>
        <mxCell id="7JGmVb6ZmZHSpFucRenV-9" value="NO" style="edgeLabel;html=1;align=center;verticalAlign=middle;resizable=0;points=[];fontSize=16;" parent="7JGmVb6ZmZHSpFucRenV-5" vertex="1" connectable="0">
          <mxGeometry x="-0.4781" y="4" relative="1" as="geometry">
            <mxPoint y="2" as="offset" />
          </mxGeometry>
        </mxCell>
        <mxCell id="7JGmVb6ZmZHSpFucRenV-6" style="edgeStyle=orthogonalEdgeStyle;rounded=0;orthogonalLoop=1;jettySize=auto;html=1;" parent="1" source="xlIVfgwMKjQX-nI9aJls-10" target="xlIVfgwMKjQX-nI9aJls-13" edge="1">
          <mxGeometry relative="1" as="geometry" />
        </mxCell>
        <mxCell id="7JGmVb6ZmZHSpFucRenV-7" value="&lt;font style=&quot;font-size: 16px;&quot;&gt;SI&lt;/font&gt;" style="edgeLabel;html=1;align=center;verticalAlign=middle;resizable=0;points=[];" parent="7JGmVb6ZmZHSpFucRenV-6" vertex="1" connectable="0">
          <mxGeometry x="-0.1133" y="-2" relative="1" as="geometry">
            <mxPoint as="offset" />
          </mxGeometry>
        </mxCell>
        <mxCell id="xlIVfgwMKjQX-nI9aJls-10" value="arrPelis[i].clave = &quot;&quot;" style="rhombus;whiteSpace=wrap;html=1;fontSize=16;" parent="1" vertex="1">
          <mxGeometry x="85" y="317" width="198" height="80" as="geometry" />
        </mxCell>
        <mxCell id="7JGmVb6ZmZHSpFucRenV-8" style="edgeStyle=orthogonalEdgeStyle;rounded=0;orthogonalLoop=1;jettySize=auto;html=1;entryX=0.5;entryY=0;entryDx=0;entryDy=0;" parent="1" source="xlIVfgwMKjQX-nI9aJls-13" target="xlIVfgwMKjQX-nI9aJls-24" edge="1">
          <mxGeometry relative="1" as="geometry" />
        </mxCell>
        <mxCell id="xlIVfgwMKjQX-nI9aJls-13" value="band &amp;lt;- false" style="whiteSpace=wrap;html=1;fontSize=16;" parent="1" vertex="1">
          <mxGeometry x="128" y="487" width="114" height="36" as="geometry" />
        </mxCell>
        <mxCell id="xlIVfgwMKjQX-nI9aJls-29" value="" style="edgeStyle=none;curved=1;rounded=0;orthogonalLoop=1;jettySize=auto;html=1;fontSize=12;startSize=8;endSize=8;" parent="1" source="xlIVfgwMKjQX-nI9aJls-24" target="xlIVfgwMKjQX-nI9aJls-28" edge="1">
          <mxGeometry relative="1" as="geometry" />
        </mxCell>
        <mxCell id="5W9Hv0gXEPMZlgM0_k2C-1" style="edgeStyle=orthogonalEdgeStyle;rounded=0;orthogonalLoop=1;jettySize=auto;html=1;entryX=0;entryY=0.5;entryDx=0;entryDy=0;" parent="1" source="xlIVfgwMKjQX-nI9aJls-24" target="xlIVfgwMKjQX-nI9aJls-8" edge="1">
          <mxGeometry relative="1" as="geometry">
            <Array as="points">
              <mxPoint x="-86" y="615" />
              <mxPoint x="-86" y="170" />
            </Array>
          </mxGeometry>
        </mxCell>
        <mxCell id="xlIVfgwMKjQX-nI9aJls-24" value="i &amp;lt;- i + 1" style="whiteSpace=wrap;html=1;fontSize=16;" parent="1" vertex="1">
          <mxGeometry x="138" y="599" width="92" height="32" as="geometry" />
        </mxCell>
        <mxCell id="xlIVfgwMKjQX-nI9aJls-28" value="FIN_mostrarCatalogo" style="ellipse;whiteSpace=wrap;html=1;fontSize=16;" parent="1" vertex="1">
          <mxGeometry x="76" y="1287" width="216" height="54" as="geometry" />
        </mxCell>
        <mxCell id="7JGmVb6ZmZHSpFucRenV-11" value="" style="edgeStyle=orthogonalEdgeStyle;rounded=0;orthogonalLoop=1;jettySize=auto;html=1;" parent="1" source="7JGmVb6ZmZHSpFucRenV-4" target="7JGmVb6ZmZHSpFucRenV-10" edge="1">
          <mxGeometry relative="1" as="geometry" />
        </mxCell>
        <mxCell id="7JGmVb6ZmZHSpFucRenV-4" value="Escribir (&quot;CLAVE &quot;, arrPelis[i].clave)" style="shape=parallelogram;perimeter=parallelogramPerimeter;whiteSpace=wrap;html=1;fixedSize=1;fontSize=16;" parent="1" vertex="1">
          <mxGeometry x="431" y="496" width="300" height="40" as="geometry" />
        </mxCell>
        <mxCell id="7JGmVb6ZmZHSpFucRenV-13" value="" style="edgeStyle=orthogonalEdgeStyle;rounded=0;orthogonalLoop=1;jettySize=auto;html=1;" parent="1" source="7JGmVb6ZmZHSpFucRenV-10" target="7JGmVb6ZmZHSpFucRenV-12" edge="1">
          <mxGeometry relative="1" as="geometry" />
        </mxCell>
        <mxCell id="7JGmVb6ZmZHSpFucRenV-10" value="Escribir (&quot;DISTRIBUIDORA &quot;, arrPelis[i].distribuidora)" style="shape=parallelogram;perimeter=parallelogramPerimeter;whiteSpace=wrap;html=1;fixedSize=1;fontSize=16;" parent="1" vertex="1">
          <mxGeometry x="361" y="576" width="440" height="40" as="geometry" />
        </mxCell>
        <mxCell id="7JGmVb6ZmZHSpFucRenV-16" value="" style="edgeStyle=orthogonalEdgeStyle;rounded=0;orthogonalLoop=1;jettySize=auto;html=1;" parent="1" source="7JGmVb6ZmZHSpFucRenV-12" target="7JGmVb6ZmZHSpFucRenV-15" edge="1">
          <mxGeometry relative="1" as="geometry" />
        </mxCell>
        <mxCell id="7JGmVb6ZmZHSpFucRenV-12" value="Escribir (&quot;NOMBRE &quot;, arrPelis[i].nombre)" style="shape=parallelogram;perimeter=parallelogramPerimeter;whiteSpace=wrap;html=1;fixedSize=1;fontSize=16;" parent="1" vertex="1">
          <mxGeometry x="411" y="656" width="340" height="40" as="geometry" />
        </mxCell>
        <mxCell id="7JGmVb6ZmZHSpFucRenV-18" value="" style="edgeStyle=orthogonalEdgeStyle;rounded=0;orthogonalLoop=1;jettySize=auto;html=1;" parent="1" source="7JGmVb6ZmZHSpFucRenV-15" target="7JGmVb6ZmZHSpFucRenV-17" edge="1">
          <mxGeometry relative="1" as="geometry" />
        </mxCell>
        <mxCell id="7JGmVb6ZmZHSpFucRenV-15" value="Escribir (&quot;CANTIDAD &quot;, arrPelis[i].cantidad)" style="shape=parallelogram;perimeter=parallelogramPerimeter;whiteSpace=wrap;html=1;fixedSize=1;fontSize=16;" parent="1" vertex="1">
          <mxGeometry x="401" y="736" width="360" height="40" as="geometry" />
        </mxCell>
        <mxCell id="7JGmVb6ZmZHSpFucRenV-20" value="" style="edgeStyle=orthogonalEdgeStyle;rounded=0;orthogonalLoop=1;jettySize=auto;html=1;" parent="1" source="7JGmVb6ZmZHSpFucRenV-17" target="7JGmVb6ZmZHSpFucRenV-19" edge="1">
          <mxGeometry relative="1" as="geometry" />
        </mxCell>
        <mxCell id="7JGmVb6ZmZHSpFucRenV-17" value="Escribir (&quot;PRECIO &quot;, arrPelis[i].precio)" style="shape=parallelogram;perimeter=parallelogramPerimeter;whiteSpace=wrap;html=1;fixedSize=1;fontSize=16;" parent="1" vertex="1">
          <mxGeometry x="401" y="816" width="360" height="40" as="geometry" />
        </mxCell>
        <mxCell id="7JGmVb6ZmZHSpFucRenV-22" value="" style="edgeStyle=orthogonalEdgeStyle;rounded=0;orthogonalLoop=1;jettySize=auto;html=1;" parent="1" source="7JGmVb6ZmZHSpFucRenV-19" target="7JGmVb6ZmZHSpFucRenV-21" edge="1">
          <mxGeometry relative="1" as="geometry" />
        </mxCell>
        <mxCell id="7JGmVb6ZmZHSpFucRenV-19" value="Escribir (&quot;GENERO &quot;, arrPelis[i].genero)" style="shape=parallelogram;perimeter=parallelogramPerimeter;whiteSpace=wrap;html=1;fixedSize=1;fontSize=16;" parent="1" vertex="1">
          <mxGeometry x="401" y="896" width="360" height="40" as="geometry" />
        </mxCell>
        <mxCell id="7JGmVb6ZmZHSpFucRenV-24" value="" style="edgeStyle=orthogonalEdgeStyle;rounded=0;orthogonalLoop=1;jettySize=auto;html=1;" parent="1" source="7JGmVb6ZmZHSpFucRenV-21" target="7JGmVb6ZmZHSpFucRenV-23" edge="1">
          <mxGeometry relative="1" as="geometry" />
        </mxCell>
        <mxCell id="7JGmVb6ZmZHSpFucRenV-21" value="Escribir (&quot;FORMATO &quot;, arrPelis[i].formato)" style="shape=parallelogram;perimeter=parallelogramPerimeter;whiteSpace=wrap;html=1;fixedSize=1;fontSize=16;" parent="1" vertex="1">
          <mxGeometry x="401" y="976" width="360" height="40" as="geometry" />
        </mxCell>
        <mxCell id="7JGmVb6ZmZHSpFucRenV-23" value="Escribir (&quot;DIRECTOR &quot;, arrPelis[i].director)" style="shape=parallelogram;perimeter=parallelogramPerimeter;whiteSpace=wrap;html=1;fixedSize=1;fontSize=16;" parent="1" vertex="1">
          <mxGeometry x="401" y="1056" width="360" height="40" as="geometry" />
        </mxCell>
        <mxCell id="7JGmVb6ZmZHSpFucRenV-26" style="edgeStyle=orthogonalEdgeStyle;rounded=0;orthogonalLoop=1;jettySize=auto;html=1;" parent="1" source="7JGmVb6ZmZHSpFucRenV-25" target="7JGmVb6ZmZHSpFucRenV-4" edge="1">
          <mxGeometry relative="1" as="geometry" />
        </mxCell>
        <mxCell id="7JGmVb6ZmZHSpFucRenV-25" value="Escribir (&quot; &quot;)" style="shape=parallelogram;perimeter=parallelogramPerimeter;whiteSpace=wrap;html=1;fixedSize=1;fontSize=16;" parent="1" vertex="1">
          <mxGeometry x="431" y="417" width="300" height="40" as="geometry" />
        </mxCell>
      </root>
    </mxGraphModel>
  </diagram>
</mxfile>
